<svg width="20" height="20" viewBox="0 0 20 20" fill="none" xmlns="http://www.w3.org/2000/svg">
<path d="M13.3334 3.3335H15C15.4421 3.3335 15.866 3.50909 16.1786 3.82165C16.4911 4.13421 16.6667 4.55814 16.6667 5.00016V16.6668C16.6667 17.1089 16.4911 17.5328 16.1786 17.8453C15.866 18.1579 15.4421 18.3335 15 18.3335H5.00004C4.55801 18.3335 4.13409 18.1579 3.82153 17.8453C3.50897 17.5328 3.33337 17.1089 3.33337 16.6668V5.00016C3.33337 4.55814 3.50897 4.13421 3.82153 3.82165C4.13409 3.50909 4.55801 3.3335 5.00004 3.3335H6.66671" stroke="#279CE4" stroke-width="1.5" stroke-linecap="round" stroke-linejoin="round"/>
<path d="M12.5001 1.66675H7.50008C7.27907 1.66675 7.06711 1.75455 6.91083 1.91083C6.75455 2.06711 6.66675 2.27907 6.66675 2.50008V4.16675C6.66675 4.38776 6.75455 4.59972 6.91083 4.756C7.06711 4.91228 7.27907 5.00008 7.50008 5.00008H12.5001C12.7211 5.00008 12.9331 4.91228 13.0893 4.756C13.2456 4.59972 13.3334 4.38776 13.3334 4.16675V2.50008C13.3334 2.27907 13.2456 2.06711 13.0893 1.91083C12.9331 1.75455 12.7211 1.66675 12.5001 1.66675V1.66675Z" stroke="#279CE4" stroke-width="2" stroke-linecap="round" stroke-linejoin="round"/>
<path d="M7.5 10.8334L9.16667 12.5001L12.5 9.16675" stroke="#279CE4" stroke-width="1.5" stroke-linecap="round" stroke-linejoin="round"/>
</svg>
