<svg width="21" height="20" viewBox="0 0 21 20" fill="none" xmlns="http://www.w3.org/2000/svg">
<path d="M4.9445 4.55566H13.8334V5.44455H4.9445V4.55566ZM4.9445 9.00011H9.43672V9.889H4.9445V9.00011ZM13.4878 6.77789H4.9445V7.66678H12.5995L13.4878 6.77789ZM7.60728 16.1512C7.7567 16.3226 7.94637 16.4541 8.15922 16.534C8.37207 16.6139 8.60144 16.6397 8.82672 16.609H13.1617C13.2649 16.609 13.3638 16.568 13.4367 16.4951C13.5096 16.4222 13.5506 16.3232 13.5506 16.2201C13.5506 16.117 13.5096 16.0181 13.4367 15.9451C13.3638 15.8722 13.2649 15.8312 13.1617 15.8312H8.82672C8.32061 15.8223 8.41061 15.3829 8.48172 15.2468C8.57443 15.087 8.64666 14.9162 8.69672 14.7384C8.72994 14.5954 8.71428 14.4453 8.65225 14.3122C8.59022 14.1791 8.4854 14.0706 8.3545 14.004C8.14419 13.9092 7.90863 13.886 7.68388 13.9379C7.45912 13.9898 7.25756 14.1139 7.11005 14.2912C6.91894 14.4884 6.65339 14.7901 6.39894 15.0834C6.55616 14.4673 6.76005 13.6768 6.96005 12.9057C7.01736 12.73 7.00595 12.5391 6.92812 12.3714C6.85029 12.2038 6.71182 12.0719 6.54061 12.0023C6.351 11.9373 6.14378 11.9466 5.96076 12.0283C5.77774 12.1101 5.63255 12.2583 5.5545 12.4429C5.3145 12.9046 3.4145 16.0884 3.39561 16.1207C3.36942 16.1645 3.35212 16.2131 3.3447 16.2636C3.33728 16.3142 3.33989 16.3656 3.35237 16.4152C3.36486 16.4647 3.38697 16.5113 3.41746 16.5523C3.44795 16.5932 3.48621 16.6278 3.53005 16.654C3.61861 16.7069 3.72454 16.7224 3.82456 16.6972C3.92458 16.672 4.01049 16.6081 4.06339 16.5196C4.1345 16.4001 5.65116 13.8596 6.1295 13.0112C5.7695 14.4001 5.37283 15.9457 5.3495 16.0846C5.32323 16.1867 5.33112 16.2946 5.37195 16.3918C5.41278 16.489 5.48431 16.5702 5.57561 16.6229C5.6773 16.6733 5.7929 16.6885 5.90415 16.6659C6.01541 16.6434 6.116 16.5845 6.19005 16.4984C6.26005 16.4351 6.39116 16.2846 6.72172 15.9007C7.0297 15.5384 7.34514 15.1826 7.66783 14.8334C7.78894 14.7057 7.86227 14.7623 7.79116 14.8879C7.65206 15.0637 7.56185 15.2731 7.52966 15.4949C7.49747 15.7167 7.52443 15.9431 7.60783 16.1512H7.60728Z" fill="#C1121F"/>
<path d="M16.0555 12.0528V17.7778H2.7222V2.2222H16.0555V4.99608L16.7944 4.2572C16.9082 4.14501 17.0329 4.04451 17.1666 3.9572V1.66664C17.1666 1.5193 17.1081 1.37799 17.0039 1.2738C16.8997 1.16962 16.7584 1.11108 16.6111 1.11108H2.16664C2.0193 1.11108 1.87799 1.16962 1.7738 1.2738C1.66962 1.37799 1.61108 1.5193 1.61108 1.66664V18.3333C1.61108 18.4806 1.66962 18.622 1.7738 18.7261C1.87799 18.8303 2.0193 18.8889 2.16664 18.8889H16.6111C16.7584 18.8889 16.8997 18.8303 17.0039 18.7261C17.1081 18.622 17.1666 18.4806 17.1666 18.3333V11.9039C16.8259 12.0844 16.4318 12.1372 16.0555 12.0528Z" fill="#C1121F"/>
<path d="M19.46 6.58951L19.1695 6.29896C19.318 6.10272 19.3932 5.86071 19.382 5.61487C19.3708 5.36902 19.274 5.13483 19.1084 4.95285C18.8933 4.76331 18.6121 4.66642 18.326 4.68328C18.0398 4.70014 17.7719 4.82937 17.5806 5.04285L10.6223 12.0001L10.1573 13.7456C10.1499 13.7685 10.149 13.7929 10.1547 13.8162C10.1604 13.8395 10.1724 13.8608 10.1894 13.8777C10.2064 13.8946 10.2278 13.9065 10.2511 13.912C10.2745 13.9175 10.2989 13.9165 10.3217 13.909L12.0612 13.4384L18.5567 6.94285L18.8312 7.21785C18.8503 7.23699 18.8655 7.25972 18.8759 7.28475C18.8863 7.30977 18.8916 7.33659 18.8916 7.36368C18.8916 7.39077 18.8863 7.41759 18.8759 7.44262C18.8655 7.46764 18.8503 7.49037 18.8312 7.50951L16.0995 10.2412C16.0162 10.3246 15.9694 10.4377 15.9694 10.5555C15.9695 10.6734 16.0164 10.7865 16.0998 10.8698C16.1832 10.9531 16.2962 10.9999 16.4141 10.9998C16.532 10.9998 16.6451 10.9529 16.7284 10.8695L19.46 8.13785C19.6654 7.93241 19.7807 7.65385 19.7807 7.3634C19.7807 7.07296 19.6654 6.7944 19.46 6.58896V6.58951Z" fill="#C1121F"/>
</svg>
