<svg width="16" height="17" viewBox="0 0 16 17" fill="none" xmlns="http://www.w3.org/2000/svg">
<path d="M3.49995 13.8125H12.4999C12.6249 13.8123 12.7454 13.8617 12.8377 13.9512C12.9301 14.0406 12.9875 14.1635 12.9988 14.2957C13.0101 14.428 12.9744 14.5599 12.8987 14.6655C12.8231 14.7711 12.7129 14.8428 12.5899 14.8665L12.4999 14.875H3.49995C3.375 14.8752 3.25449 14.8258 3.16216 14.7363C3.06983 14.6469 3.01236 14.524 3.00107 14.3918C2.98978 14.2595 3.02549 14.1276 3.10116 14.022C3.17684 13.9164 3.287 13.8447 3.40995 13.821L3.49995 13.8125H12.4999H3.49995ZM7.90995 1.071L7.99995 1.0625C8.11697 1.06246 8.2303 1.10603 8.3202 1.18563C8.41011 1.26523 8.47088 1.37582 8.49195 1.49812L8.49995 1.59375V10.9352L11.1819 8.08669C11.2647 7.99868 11.3738 7.94431 11.4904 7.93305C11.607 7.92179 11.7236 7.95435 11.8199 8.02506L11.8899 8.08669C11.9726 8.17472 12.0236 8.29078 12.034 8.41465C12.0444 8.53852 12.0136 8.66235 11.9469 8.76456L11.8889 8.83787L8.35395 12.5949C8.27109 12.6827 8.16186 12.7369 8.04527 12.748C7.92869 12.759 7.81214 12.7263 7.71595 12.6554L7.64595 12.5949L4.11095 8.83787C4.02236 8.74417 3.97002 8.61862 3.96424 8.48595C3.95846 8.35328 3.99966 8.22313 4.07972 8.12113C4.15978 8.01914 4.27289 7.9527 4.39676 7.93492C4.52063 7.91714 4.64628 7.9493 4.74895 8.02506L4.81795 8.08669L7.49995 10.9352V1.59375C7.49991 1.46941 7.54092 1.349 7.61584 1.25347C7.69075 1.15795 7.79483 1.09338 7.90995 1.071L7.99995 1.0625L7.90995 1.071Z" fill="#C4C4C4"/>
</svg>
