<svg width="20" height="19" viewBox="0 0 20 19" fill="none" xmlns="http://www.w3.org/2000/svg">
<path d="M19.8555 3V5H16.8555V8H14.8555V5H11.8555V3H14.8555V0H16.8555V3H19.8555ZM11.3555 10C11.7534 9.99987 12.135 9.84165 12.4164 9.56016C12.6977 9.27867 12.8556 8.89696 12.8555 8.499C12.8554 8.10104 12.6971 7.71944 12.4156 7.43813C12.1342 7.15683 11.7524 6.99887 11.3545 6.999C11.1574 6.99907 10.9623 7.03794 10.7803 7.11341C10.5983 7.18888 10.4329 7.29946 10.2936 7.43884C10.1543 7.57822 10.0439 7.74367 9.96851 7.92575C9.89316 8.10782 9.85442 8.30295 9.85448 8.5C9.85455 8.69705 9.89342 8.89215 9.96889 9.07418C10.0444 9.2562 10.1549 9.42158 10.2943 9.56087C10.4337 9.70016 10.5992 9.81063 10.7812 9.88597C10.9633 9.96132 11.1584 10.0001 11.3555 10ZM14.8555 13.234L14.3425 12.664C14.1549 12.4552 13.9255 12.2881 13.6691 12.1738C13.4128 12.0595 13.1352 12.0004 12.8545 12.0004C12.5738 12.0004 12.2962 12.0595 12.0398 12.1738C11.7835 12.2881 11.554 12.4552 11.3665 12.664L10.7105 13.395L5.85548 8L2.85547 11.333V5H9.85548V3H2.85547C2.32504 3 1.81633 3.21071 1.44126 3.58579C1.06618 3.96086 0.855469 4.46957 0.855469 5V17C0.855469 17.5304 1.06618 18.0391 1.44126 18.4142C1.81633 18.7893 2.32504 19 2.85547 19H14.8555C15.3859 19 15.8946 18.7893 16.2697 18.4142C16.6448 18.0391 16.8555 17.5304 16.8555 17V10H14.8555V13.234Z" fill="#343434"/>
</svg>
