<svg width="13" height="14" viewBox="0 0 13 14" fill="none" xmlns="http://www.w3.org/2000/svg">
<g clip-path="url(#clip0_286_193)">
<path d="M0.426758 4.12726V0.285706H1.22053V4.12726C1.22053 4.46688 1.34597 4.79258 1.56927 5.03273C1.79256 5.27287 2.09541 5.40778 2.41119 5.40778C2.72697 5.40778 3.02982 5.27287 3.25311 5.03273C3.4764 4.79258 3.60185 4.46688 3.60185 4.12726V1.56623C3.60185 1.45302 3.56003 1.34445 3.4856 1.2644C3.41117 1.18436 3.31022 1.13939 3.20496 1.13939C3.0997 1.13939 2.99875 1.18436 2.92432 1.2644C2.84989 1.34445 2.80807 1.45302 2.80807 1.56623V4.5541H2.0143V1.56623C2.0143 1.39806 2.0451 1.23155 2.10494 1.07619C2.16477 0.920832 2.25248 0.779668 2.36304 0.660761C2.4736 0.541854 2.60486 0.447531 2.74932 0.383179C2.89377 0.318827 3.0486 0.285706 3.20496 0.285706C3.36132 0.285706 3.51615 0.318827 3.66061 0.383179C3.80506 0.447531 3.93632 0.541854 4.04688 0.660761C4.15745 0.779668 4.24515 0.920832 4.30499 1.07619C4.36482 1.23155 4.39562 1.39806 4.39562 1.56623V4.12726C4.39562 4.69329 4.18655 5.23613 3.81439 5.63637C3.44224 6.03661 2.93749 6.26146 2.41119 6.26146C1.88488 6.26146 1.38014 6.03661 1.00798 5.63637C0.635831 5.23613 0.426758 4.69329 0.426758 4.12726H0.426758Z" fill="white"/>
<path fill-rule="evenodd" clip-rule="evenodd" d="M10.3488 0.285706H5.18932V4.12726C5.18932 4.9197 4.89662 5.67968 4.3756 6.24001C3.85459 6.80035 3.14794 7.11514 2.41112 7.11514H1.22046V11.8104C1.22046 12.15 1.3459 12.4757 1.56919 12.7158C1.79249 12.956 2.09534 13.0909 2.41112 13.0909H10.3488C10.6646 13.0909 10.9675 12.956 11.1908 12.7158C11.4141 12.4757 11.5395 12.15 11.5395 11.8104V1.56623C11.5395 1.22661 11.4141 0.900905 11.1908 0.660761C10.9675 0.420617 10.6646 0.285706 10.3488 0.285706V0.285706ZM9.15818 3.70042H5.98309V4.5541H9.15818V3.70042ZM9.15818 6.26146H5.98309V7.11514H9.15818V6.26146ZM3.60178 8.8225H9.15818V9.67618H3.60178V8.8225Z" fill="white"/>
</g>
<defs>
<clipPath id="clip0_286_193">
<rect width="11.9066" height="12.8052" fill="white" transform="translate(0.426758 0.285706)"/>
</clipPath>
</defs>
</svg>
