<svg width="23" height="23" viewBox="0 0 23 23" fill="none" xmlns="http://www.w3.org/2000/svg">
<path fill-rule="evenodd" clip-rule="evenodd" d="M16.7712 19.1667C17.4066 19.1667 18.016 18.9143 18.4653 18.465C18.9146 18.0157 19.167 17.4063 19.167 16.7709C19.167 16.1354 18.9146 15.526 18.4653 15.0767C18.016 14.6274 17.4066 14.375 16.7712 14.375C16.1357 14.375 15.5264 14.6274 15.077 15.0767C14.6277 15.526 14.3753 16.1354 14.3753 16.7709C14.3753 17.4063 14.6277 18.0157 15.077 18.465C15.5264 18.9143 16.1357 19.1667 16.7712 19.1667ZM16.7712 20.125C17.6607 20.125 18.5139 19.7716 19.1429 19.1426C19.7719 18.5136 20.1253 17.6604 20.1253 16.7709C20.1253 15.8813 19.7719 15.0281 19.1429 14.3991C18.5139 13.7701 17.6607 13.4167 16.7712 13.4167C15.8816 13.4167 15.0284 13.7701 14.3994 14.3991C13.7704 15.0281 13.417 15.8813 13.417 16.7709C13.417 17.6604 13.7704 18.5136 14.3994 19.1426C15.0284 19.7716 15.8816 20.125 16.7712 20.125Z" fill="#E4891A"/>
<path fill-rule="evenodd" clip-rule="evenodd" d="M16.7712 15.0938C16.8982 15.0938 17.0201 15.1442 17.11 15.2341C17.1998 15.324 17.2503 15.4458 17.2503 15.5729V16.5725L17.5891 16.9112C17.6764 17.0016 17.7247 17.1226 17.7236 17.2483C17.7225 17.3739 17.6721 17.4941 17.5833 17.5829C17.4944 17.6718 17.3742 17.7222 17.2486 17.7233C17.123 17.7244 17.0019 17.6761 16.9116 17.5888L16.292 16.9692V15.5729C16.292 15.4458 16.3425 15.324 16.4323 15.2341C16.5222 15.1442 16.6441 15.0938 16.7712 15.0938ZM6.70866 11.0208H5.75033V11.9792H6.70866V11.0208ZM5.75033 10.0625C5.49616 10.0625 5.2524 10.1635 5.07268 10.3432C4.89296 10.5229 4.79199 10.7667 4.79199 11.0208V11.9792C4.79199 12.2333 4.89296 12.4771 5.07268 12.6568C5.2524 12.8365 5.49616 12.9375 5.75033 12.9375H6.70866C6.96283 12.9375 7.20658 12.8365 7.3863 12.6568C7.56603 12.4771 7.66699 12.2333 7.66699 11.9792V11.0208C7.66699 10.7667 7.56603 10.5229 7.3863 10.3432C7.20658 10.1635 6.96283 10.0625 6.70866 10.0625H5.75033ZM10.542 11.0208H9.58366V11.9792H10.542V11.0208ZM9.58366 10.0625C9.32949 10.0625 9.08574 10.1635 8.90602 10.3432C8.72629 10.5229 8.62533 10.7667 8.62533 11.0208V11.9792C8.62533 12.2333 8.72629 12.4771 8.90602 12.6568C9.08574 12.8365 9.32949 12.9375 9.58366 12.9375H10.542C10.7962 12.9375 11.0399 12.8365 11.2196 12.6568C11.3994 12.4771 11.5003 12.2333 11.5003 11.9792V11.0208C11.5003 10.7667 11.3994 10.5229 11.2196 10.3432C11.0399 10.1635 10.7962 10.0625 10.542 10.0625H9.58366ZM14.3753 11.0208H13.417V11.9792H14.3753V11.0208ZM13.417 10.0625C13.1628 10.0625 12.9191 10.1635 12.7394 10.3432C12.5596 10.5229 12.4587 10.7667 12.4587 11.0208V11.9792C12.4587 12.2333 12.5596 12.4771 12.7394 12.6568C12.9191 12.8365 13.1628 12.9375 13.417 12.9375H14.3753C14.6295 12.9375 14.8733 12.8365 15.053 12.6568C15.2327 12.4771 15.3337 12.2333 15.3337 11.9792V11.0208C15.3337 10.7667 15.2327 10.5229 15.053 10.3432C14.8733 10.1635 14.6295 10.0625 14.3753 10.0625H13.417ZM6.70866 14.8542H5.75033V15.8125H6.70866V14.8542ZM5.75033 13.8958C5.49616 13.8958 5.2524 13.9968 5.07268 14.1765C4.89296 14.3562 4.79199 14.6 4.79199 14.8542V15.8125C4.79199 16.0667 4.89296 16.3104 5.07268 16.4901C5.2524 16.6699 5.49616 16.7708 5.75033 16.7708H6.70866C6.96283 16.7708 7.20658 16.6699 7.3863 16.4901C7.56603 16.3104 7.66699 16.0667 7.66699 15.8125V14.8542C7.66699 14.6 7.56603 14.3562 7.3863 14.1765C7.20658 13.9968 6.96283 13.8958 6.70866 13.8958H5.75033ZM10.542 14.8542H9.58366V15.8125H10.542V14.8542ZM9.58366 13.8958C9.32949 13.8958 9.08574 13.9968 8.90602 14.1765C8.72629 14.3562 8.62533 14.6 8.62533 14.8542V15.8125C8.62533 16.0667 8.72629 16.3104 8.90602 16.4901C9.08574 16.6699 9.32949 16.7708 9.58366 16.7708H10.542C10.7962 16.7708 11.0399 16.6699 11.2196 16.4901C11.3994 16.3104 11.5003 16.0667 11.5003 15.8125V14.8542C11.5003 14.6 11.3994 14.3562 11.2196 14.1765C11.0399 13.9968 10.7962 13.8958 10.542 13.8958H9.58366Z" fill="#E4891A"/>
<path fill-rule="evenodd" clip-rule="evenodd" d="M3.83333 5.75C3.83333 5.62292 3.88382 5.50104 3.97368 5.41118C4.06354 5.32132 4.18542 5.27083 4.3125 5.27083H6.70833V4.3125H4.3125C3.93125 4.3125 3.56562 4.46395 3.29603 4.73353C3.02645 5.00312 2.875 5.36875 2.875 5.75V17.25C2.875 17.6312 3.02645 17.9969 3.29603 18.2665C3.56562 18.536 3.93125 18.6875 4.3125 18.6875H14.018C13.8137 18.3948 13.6576 18.0713 13.5556 17.7292H4.3125C4.18542 17.7292 4.06354 17.6787 3.97368 17.5888C3.88382 17.499 3.83333 17.3771 3.83333 17.25V5.75ZM16.2917 13.4502C16.6095 13.4047 16.9322 13.4047 17.25 13.4502V5.75C17.25 5.36875 17.0985 5.00312 16.829 4.73353C16.5594 4.46395 16.1937 4.3125 15.8125 4.3125H14.375V5.27083H15.8125C15.9396 5.27083 16.0615 5.32132 16.1513 5.41118C16.2412 5.50104 16.2917 5.62292 16.2917 5.75V13.4502ZM7.66667 5.27083H12.7281V4.3125H7.66667V5.27083Z" fill="#E4891A"/>
<path fill-rule="evenodd" clip-rule="evenodd" d="M13.417 4.3125H7.66699V5.75C7.66699 5.87708 7.61651 5.99896 7.52665 6.08882C7.43679 6.17868 7.31491 6.22917 7.18783 6.22917C7.06074 6.22917 6.93887 6.17868 6.849 6.08882C6.75914 5.99896 6.70866 5.87708 6.70866 5.75V4.3125H4.31283C4.05866 4.3125 3.8149 4.41347 3.63518 4.59319C3.45546 4.77291 3.35449 5.01667 3.35449 5.27083V7.66667C3.35449 7.92083 3.45546 8.16459 3.63518 8.34431C3.8149 8.52403 4.05866 8.625 4.31283 8.625H15.8128C16.067 8.625 16.3108 8.52403 16.4905 8.34431C16.6702 8.16459 16.7712 7.92083 16.7712 7.66667V5.27083C16.7712 5.01667 16.6702 4.77291 16.4905 4.59319C16.3108 4.41347 16.067 4.3125 15.8128 4.3125H14.3753V5.75C14.3753 5.87708 14.3248 5.99896 14.235 6.08882C14.1451 6.17868 14.0232 6.22917 13.8962 6.22917C13.7691 6.22917 13.6472 6.17868 13.5573 6.08882C13.4675 5.99896 13.417 5.87708 13.417 5.75V4.3125Z" fill="#E4891A"/>
<path fill-rule="evenodd" clip-rule="evenodd" d="M17.2497 8.62502H3.83301V7.66669H17.2497V8.62502Z" fill="#E4891A"/>
<path d="M5.75 3.35417C5.75 3.22708 5.80048 3.10521 5.89034 3.01534C5.98021 2.92548 6.10208 2.875 6.22917 2.875C6.35625 2.875 6.47813 2.92548 6.56799 3.01534C6.65785 3.10521 6.70833 3.22708 6.70833 3.35417V5.27083C6.70833 5.39792 6.65785 5.51979 6.56799 5.60966C6.47813 5.69952 6.35625 5.75 6.22917 5.75C6.10208 5.75 5.98021 5.69952 5.89034 5.60966C5.80048 5.51979 5.75 5.39792 5.75 5.27083V3.35417ZM12.4583 3.35417C12.4583 3.22708 12.5088 3.10521 12.5987 3.01534C12.6885 2.92548 12.8104 2.875 12.9375 2.875C13.0646 2.875 13.1865 2.92548 13.2763 3.01534C13.3662 3.10521 13.4167 3.22708 13.4167 3.35417V5.27083C13.4167 5.39792 13.3662 5.51979 13.2763 5.60966C13.1865 5.69952 13.0646 5.75 12.9375 5.75C12.8104 5.75 12.6885 5.69952 12.5987 5.60966C12.5088 5.51979 12.4583 5.39792 12.4583 5.27083V3.35417Z" fill="#E4891A"/>
</svg>
