<svg width="21" height="24" viewBox="0 0 21 24" fill="none" xmlns="http://www.w3.org/2000/svg">
<path d="M15.25 0.125L17.275 2.13875L12.7637 6.63875L14.3612 8.23625L18.8612 3.73625L20.875 5.75V0.125H15.25ZM8.5 8C4.1575 8 0.625 11.5213 0.625 15.875C0.625 17.9636 1.45468 19.9666 2.93153 21.4435C4.40838 22.9203 6.41142 23.75 8.5 23.75C12.8425 23.75 16.375 20.2288 16.375 15.875C16.375 13.7864 15.5453 11.7834 14.0685 10.3065C12.5916 8.82969 10.5886 8 8.5 8ZM8.5 10.4188C11.5037 10.4188 13.9562 12.86 13.9562 15.875C13.9562 16.5915 13.8151 17.301 13.5409 17.963C13.2667 18.625 12.8648 19.2265 12.3581 19.7332C11.8515 20.2398 11.25 20.6417 10.588 20.9159C9.92603 21.1901 9.21652 21.3313 8.5 21.3313C5.485 21.3313 3.04375 18.89 3.04375 15.875C3.04375 14.4279 3.6186 13.0401 4.64185 12.0168C5.66509 10.9936 7.05291 10.4188 8.5 10.4188ZM7.375 12.5V16.6513L10.9637 18.7213L11.8075 17.2588L9.0625 15.6725V12.5" fill="#780000"/>
</svg>
