<svg width="22" height="25" viewBox="0 0 22 25" fill="none" xmlns="http://www.w3.org/2000/svg">
<path d="M2.48617 0.888748L0.888672 2.48625L5.39992 6.98625L3.37492 9H8.99992V3.375L6.98617 5.4L2.48617 0.888748ZM13.4999 9C9.15742 9 5.62492 12.5212 5.62492 16.875C5.62492 18.9636 6.45461 20.9666 7.93146 22.4435C9.40831 23.9203 11.4113 24.75 13.4999 24.75C17.8424 24.75 21.3749 21.2288 21.3749 16.875C21.3749 14.7864 20.5452 12.7834 19.0684 11.3065C17.5915 9.82969 15.5885 9 13.4999 9ZM13.4999 11.4187C16.5037 11.4187 18.9562 13.86 18.9562 16.875C18.9562 17.5915 18.815 18.301 18.5408 18.963C18.2666 19.625 17.8647 20.2265 17.3581 20.7332C16.8514 21.2398 16.2499 21.6417 15.5879 21.9159C14.926 22.1901 14.2164 22.3313 13.4999 22.3313C10.4849 22.3313 8.04367 19.89 8.04367 16.875C8.04367 15.4279 8.61852 14.0401 9.64177 13.0168C10.665 11.9936 12.0528 11.4187 13.4999 11.4187ZM12.3749 13.5V17.6513L15.9637 19.7213L16.8074 18.2588L14.0624 16.6725V13.5" fill="#780000"/>
</svg>
