<svg width="145" height="145" viewBox="0 0 145 145" fill="none" xmlns="http://www.w3.org/2000/svg">
<path d="M71.9339 88.3593C76.1401 88.3593 80.1739 86.6884 83.1482 83.7142C86.1224 80.74 87.7933 76.7061 87.7933 72.4999C87.7933 72.0354 87.772 71.5752 87.7324 71.1207L70.5547 88.2984C71.0092 88.338 71.468 88.3593 71.9339 88.3593ZM124.428 23.4434L118.379 17.3999C118.167 17.1876 117.879 17.0684 117.578 17.0684C117.278 17.0684 116.99 17.1876 116.778 17.3999L101.298 32.884C92.7583 28.5199 83.1591 26.3378 72.5003 26.3378C45.2845 26.3378 24.9788 40.5121 11.5833 68.8607C11.0449 70.0009 10.7656 71.2461 10.7656 72.507C10.7656 73.7679 11.0449 75.0131 11.5833 76.1532C16.9358 87.4275 23.3811 96.4641 30.919 103.263L15.939 118.237C15.7267 118.45 15.6074 118.738 15.6074 119.038C15.6074 119.338 15.7267 119.626 15.939 119.839L21.9839 125.884C22.1964 126.096 22.4844 126.215 22.7847 126.215C23.085 126.215 23.373 126.096 23.5855 125.884L124.428 25.0464C124.534 24.9412 124.617 24.8162 124.674 24.6787C124.731 24.5412 124.761 24.3938 124.761 24.2449C124.761 24.096 124.731 23.9486 124.674 23.8111C124.617 23.6736 124.534 23.5487 124.428 23.4434ZM47.012 72.4999C47.0116 68.1953 48.1262 63.964 50.2472 60.2182C52.3681 56.4723 55.4231 53.3397 59.1146 51.1255C62.8061 48.9113 67.0081 47.691 71.3114 47.5835C75.6146 47.476 79.8724 48.4849 83.6698 50.512L76.7852 57.3967C74.0086 56.5076 71.0409 56.4006 68.2075 57.0872C65.3741 57.7739 62.7846 59.2277 60.7232 61.2892C58.6617 63.3507 57.2078 65.9401 56.5212 68.7735C55.8346 71.6069 55.9416 74.5746 56.8307 77.3512L49.946 84.2358C48.014 80.6261 47.006 76.5941 47.012 72.4999V72.4999Z" fill="#343434"/>
<path d="M133.417 68.8467C128.432 58.3493 122.5 49.7895 115.619 43.1672L95.2084 63.5791C96.9289 68.0766 97.3102 72.976 96.3064 77.6856C95.3025 82.3951 92.9564 86.7132 89.5514 90.1181C86.1465 93.5231 81.8284 95.8692 77.1189 96.8731C72.4093 97.8769 67.5099 97.4956 63.0124 95.7751L45.7002 113.087C53.7318 116.804 62.665 118.662 72.4997 118.662C99.7155 118.662 120.021 104.488 133.417 76.1392C133.955 74.9991 134.235 73.7538 134.235 72.4929C134.235 71.232 133.955 69.9868 133.417 68.8467V68.8467Z" fill="#343434"/>
</svg>
