<svg width="124" height="93" viewBox="0 0 124 93" fill="none" xmlns="http://www.w3.org/2000/svg">
<path d="M45.5036 46.5C45.5036 50.737 47.1817 54.8004 50.1687 57.7964C53.1557 60.7923 57.2069 62.4755 61.4311 62.4755C65.6554 62.4755 69.7066 60.7923 72.6936 57.7964C75.6806 54.8004 77.3587 50.737 77.3587 46.5C77.3587 42.263 75.6806 38.1996 72.6936 35.2036C69.7066 32.2077 65.6554 30.5245 61.4311 30.5245C57.2069 30.5245 53.1557 32.2077 50.1687 35.2036C47.1817 38.1996 45.5036 42.263 45.5036 46.5V46.5ZM123.179 42.8199C109.697 14.3351 89.3185 0 62 0C34.6672 0 14.3027 14.3351 0.821196 42.8342C0.280448 43.9827 0 45.237 0 46.5071C0 47.7772 0.280448 49.0316 0.821196 50.1801C14.3027 78.6649 34.6814 93 62 93C89.3327 93 109.697 78.6649 123.179 50.1658C124.274 47.8551 124.274 45.1735 123.179 42.8199V42.8199ZM61.4311 71.6043C47.6083 71.6043 36.4022 60.3644 36.4022 46.5C36.4022 32.6356 47.6083 21.3957 61.4311 21.3957C75.2539 21.3957 86.4601 32.6356 86.4601 46.5C86.4601 60.3644 75.2539 71.6043 61.4311 71.6043Z" fill="#343434"/>
</svg>
