<svg width="38" height="38" viewBox="0 0 38 38" fill="none" xmlns="http://www.w3.org/2000/svg">
<path fill-rule="evenodd" clip-rule="evenodd" d="M19 0.666664C29.125 0.666664 37.3333 8.875 37.3333 19C37.3333 29.125 29.125 37.3333 19 37.3333C8.87501 37.3333 0.666679 29.125 0.666679 19C0.666679 8.875 8.87501 0.666664 19 0.666664ZM22.6783 13.5117C22.9819 13.1973 23.1499 12.7763 23.1461 12.3393C23.1423 11.9023 22.9671 11.4843 22.658 11.1753C22.349 10.8663 21.931 10.691 21.494 10.6872C21.057 10.6834 20.636 10.8514 20.3217 11.155L13.655 17.8217C13.3426 18.1342 13.167 18.5581 13.167 19C13.167 19.4419 13.3426 19.8658 13.655 20.1783L20.3217 26.845C20.636 27.1486 21.057 27.3166 21.494 27.3128C21.931 27.309 22.349 27.1337 22.658 26.8247C22.9671 26.5157 23.1423 26.0977 23.1461 25.6607C23.1499 25.2237 22.9819 24.8027 22.6783 24.4883L17.19 19L22.6783 13.5117Z" fill="#780000"/>
</svg>
