<svg width="38" height="38" viewBox="0 0 38 38" fill="none" xmlns="http://www.w3.org/2000/svg">
<path fill-rule="evenodd" clip-rule="evenodd" d="M19 0.666664C8.87502 0.666664 0.666687 8.875 0.666687 19C0.666687 29.125 8.87502 37.3333 19 37.3333C29.125 37.3333 37.3334 29.125 37.3334 19C37.3334 8.875 29.125 0.666664 19 0.666664ZM15.3217 13.5117C15.0181 13.1973 14.8501 12.7763 14.8539 12.3393C14.8577 11.9023 15.033 11.4843 15.342 11.1753C15.651 10.8663 16.069 10.691 16.506 10.6872C16.943 10.6834 17.364 10.8514 17.6784 11.155L24.345 17.8217C24.6575 18.1342 24.833 18.5581 24.833 19C24.833 19.4419 24.6575 19.8658 24.345 20.1783L17.6784 26.845C17.364 27.1486 16.943 27.3166 16.506 27.3128C16.069 27.309 15.651 27.1337 15.342 26.8247C15.033 26.5157 14.8577 26.0977 14.8539 25.6607C14.8501 25.2237 15.0181 24.8027 15.3217 24.4883L20.81 19L15.3217 13.5117Z" fill="#780000"/>
</svg>
