<svg width="24" height="24" viewBox="0 0 24 24" fill="none" xmlns="http://www.w3.org/2000/svg">
<path fill-rule="evenodd" clip-rule="evenodd" d="M15.1215 8.44357L14.4945 10.5001H12.8955L15.579 2.50208H17.43L20.1015 10.5001H18.4215L17.793 8.44357H15.1215ZM17.4765 7.26607L16.4985 4.03058H16.428L15.45 7.26607H17.4765Z" fill="black"/>
<path d="M19.439 21.0001H13.541V19.9636L17.4095 14.3836V14.3026H13.646V13.0021H19.3235V14.0386L15.473 19.6186V19.6996H19.4405V21.0001H19.439ZM6.74899 20.2501C6.74899 20.449 6.66998 20.6398 6.52932 20.7804C6.38867 20.9211 6.19791 21.0001 5.99899 21.0001C5.80008 21.0001 5.60932 20.9211 5.46866 20.7804C5.32801 20.6398 5.24899 20.449 5.24899 20.2501V5.5606L3.52999 7.2811C3.46026 7.35083 3.37748 7.40615 3.28637 7.44389C3.19526 7.48163 3.09761 7.50105 2.99899 7.50105C2.90038 7.50105 2.80273 7.48163 2.71162 7.44389C2.62051 7.40615 2.53773 7.35083 2.46799 7.2811C2.39826 7.21137 2.34295 7.12859 2.30521 7.03748C2.26747 6.94637 2.24805 6.84872 2.24805 6.7501C2.24805 6.65149 2.26747 6.55384 2.30521 6.46273C2.34295 6.37162 2.39826 6.28883 2.46799 6.2191L5.46799 3.2206L5.47849 3.2101C5.6195 3.07316 5.80879 2.99731 6.00534 2.99899C6.20189 3.00067 6.38986 3.07976 6.52849 3.2191L9.52849 6.2191C9.59823 6.28874 9.65356 6.37142 9.69134 6.46244C9.72911 6.55346 9.74859 6.65103 9.74866 6.74957C9.74873 6.84812 9.72939 6.94571 9.69174 7.03679C9.65409 7.12786 9.59888 7.21062 9.52924 7.28035C9.45961 7.35008 9.37692 7.40542 9.28591 7.44319C9.19489 7.48097 9.09732 7.50045 8.99878 7.50052C8.90023 7.50059 8.80263 7.48125 8.71156 7.4436C8.62049 7.40595 8.53773 7.35074 8.46799 7.2811L6.74899 5.5606V20.2501Z" fill="black"/>
</svg>
