<svg width="23" height="23" viewBox="0 0 23 23" fill="none" xmlns="http://www.w3.org/2000/svg">
<path fill-rule="evenodd" clip-rule="evenodd" d="M11.042 0.0416565C4.96699 0.0416565 0.0419922 4.96666 0.0419922 11.0417C0.0419922 17.1167 4.96699 22.0417 11.042 22.0417C17.117 22.0417 22.042 17.1167 22.042 11.0417C22.042 4.96666 17.117 0.0416565 11.042 0.0416565ZM15.81 9.18166C15.8978 9.0813 15.9646 8.9644 16.0066 8.83782C16.0485 8.71125 16.0647 8.57757 16.0543 8.44464C16.0438 8.31171 16.0068 8.18222 15.9456 8.06378C15.8843 7.94535 15.8 7.84036 15.6975 7.755C15.5951 7.66963 15.4766 7.60562 15.3491 7.56672C15.2215 7.52782 15.0875 7.51482 14.9549 7.52848C14.8222 7.54215 14.6937 7.5822 14.5767 7.64629C14.4598 7.71038 14.3569 7.7972 14.274 7.90166L9.97399 13.0607L7.74899 10.8347C7.56039 10.6525 7.30779 10.5517 7.04559 10.554C6.78339 10.5563 6.53258 10.6614 6.34717 10.8468C6.16177 11.0322 6.0566 11.2831 6.05432 11.5453C6.05204 11.8075 6.15283 12.0601 6.33499 12.2487L9.33499 15.2487C9.43325 15.3469 9.55089 15.4235 9.68041 15.4737C9.80993 15.5239 9.94849 15.5466 10.0873 15.5403C10.226 15.534 10.362 15.4989 10.4864 15.4371C10.6108 15.3754 10.721 15.2884 10.81 15.1817L15.81 9.18166Z" fill="#00AB9A"/>
</svg>
