<svg width="22" height="26" viewBox="0 0 22 26" fill="none" xmlns="http://www.w3.org/2000/svg">
<path d="M18.3563 13.7406C18.3438 11.6094 19.3094 10.0031 21.2594 8.81875C20.1687 7.25625 18.5187 6.39687 16.3438 6.23125C14.2844 6.06875 12.0312 7.43125 11.2062 7.43125C10.3344 7.43125 8.34063 6.2875 6.77188 6.2875C3.53438 6.3375 0.09375 8.86875 0.09375 14.0187C0.09375 15.5406 0.371875 17.1125 0.928125 18.7313C1.67187 20.8625 4.35312 26.0844 7.15 26C8.6125 25.9656 9.64687 24.9625 11.55 24.9625C13.3969 24.9625 14.3531 26 15.9844 26C18.8062 25.9594 21.2313 21.2125 21.9375 19.075C18.1531 17.2906 18.3563 13.85 18.3563 13.7406ZM15.0719 4.20937C16.6562 2.32812 16.5125 0.615625 16.4656 0C15.0656 0.08125 13.4469 0.953125 12.525 2.025C11.5094 3.175 10.9125 4.59687 11.0406 6.2C12.5531 6.31562 13.9344 5.5375 15.0719 4.20937Z" fill="white"/>
</svg>
