<svg width="18" height="14" viewBox="0 0 18 14" fill="none" xmlns="http://www.w3.org/2000/svg">
<path d="M0.05625 1.74938C0.16967 1.2524 0.448487 0.808665 0.847037 0.490847C1.24559 0.173029 1.74025 -3.43062e-05 2.25 5.10091e-09H15.75C16.2598 -3.43062e-05 16.7544 0.173029 17.153 0.490847C17.5515 0.808665 17.8303 1.2524 17.9438 1.74938L9 7.21575L0.05625 1.74938ZM0 3.03413V11.0261L6.52838 7.02338L0 3.03413ZM7.60613 7.68375L0.214875 12.2141C0.397492 12.5992 0.685717 12.9245 1.046 13.1521C1.40629 13.3798 1.82382 13.5004 2.25 13.5H15.75C16.1761 13.5001 16.5935 13.3792 16.9536 13.1514C17.3136 12.9235 17.6016 12.5981 17.784 12.213L10.3927 7.68263L9 8.53425L7.60613 7.68375ZM11.4716 7.0245L18 11.0261V3.03413L11.4716 7.02338V7.0245Z" fill="#A3A3A3"/>
</svg>
