<svg width="22" height="22" viewBox="0 0 22 22" fill="none" xmlns="http://www.w3.org/2000/svg">
<path d="M19.2498 2.75H2.74984C1.7415 2.75 0.916504 3.575 0.916504 4.58333V11.9167H2.74984V4.58333H19.2498V19.25C20.2582 19.25 21.0832 18.425 21.0832 17.4167V4.58333C21.0832 3.575 20.2582 2.75 19.2498 2.75Z" fill="white"/>
<path d="M8.24992 12.8333C10.275 12.8333 11.9166 11.1917 11.9166 9.16667C11.9166 7.14162 10.275 5.5 8.24992 5.5C6.22487 5.5 4.58325 7.14162 4.58325 9.16667C4.58325 11.1917 6.22487 12.8333 8.24992 12.8333Z" fill="white"/>
<path d="M14.1074 15.18C12.5674 14.3917 10.5691 13.75 8.2499 13.75C5.93073 13.75 3.9324 14.3917 2.3924 15.18C1.94512 15.4104 1.57042 15.7602 1.3099 16.1906C1.04939 16.621 0.913236 17.1152 0.916563 17.6183V20.1667H15.5832V17.6183C15.5832 16.5917 15.0241 15.6475 14.1074 15.18Z" fill="white"/>
</svg>
