<svg width="18" height="14" viewBox="0 0 18 14" fill="none" xmlns="http://www.w3.org/2000/svg">
<path d="M15.6 0H0V11.667H15.6V0ZM14.4 10.5003H1.2V1.1667H14.4V10.5003Z" fill="white"/>
<path d="M16.8 2.91638V12.8333H3V14H18V2.91638H16.8Z" fill="white"/>
<path d="M7.7999 8.69374C9.28866 8.69374 10.4999 7.41267 10.4999 5.83803C10.4999 4.26339 9.28866 2.98232 7.7999 2.98232C6.31115 2.98232 5.0999 4.26335 5.0999 5.83803C5.0999 7.41271 6.31115 8.69374 7.7999 8.69374ZM7.7999 4.14902C8.62701 4.14902 9.29991 4.90671 9.29991 5.83803C9.29991 6.76935 8.62701 7.52704 7.7999 7.52704C6.9728 7.52704 6.2999 6.76935 6.2999 5.83803C6.2999 4.90671 6.9728 4.14902 7.7999 4.14902ZM2.3999 2.62473H3.5999V9.04156H2.3999V2.62473ZM11.9999 2.62473H13.1999V9.04156H11.9999V2.62473Z" fill="white"/>
</svg>
