<svg width="22" height="22" viewBox="0 0 22 22" fill="none" xmlns="http://www.w3.org/2000/svg">
<path d="M1.9845 17.9217C2.155 18.1784 2.44192 18.3333 2.74992 18.3333H16.4999C16.8666 18.3333 17.1984 18.1152 17.3423 17.7778L20.0923 11.3612C20.1526 11.2218 20.1772 11.0696 20.1639 10.9183C20.1507 10.767 20.1 10.6214 20.0164 10.4946C19.9328 10.3678 19.819 10.2638 19.6852 10.192C19.5514 10.1202 19.4018 10.0829 19.2499 10.0833H18.3333V7.33332C18.3333 6.32224 17.511 5.49999 16.4999 5.49999H10.3995L8.0565 3.66666H3.66659C2.6555 3.66666 1.83325 4.48891 1.83325 5.49999V17.4167H1.83967C1.83763 17.5955 1.88797 17.7711 1.9845 17.9217ZM16.4999 7.33332V10.0833H5.49992C5.13325 10.0833 4.80142 10.3015 4.6575 10.6388L3.66659 12.9516V7.33332H16.4999Z" fill="white"/>
</svg>
