<svg width="30" height="28" viewBox="0 0 30 28" fill="none" xmlns="http://www.w3.org/2000/svg">
<path d="M13.7189 13.803V16.5221L12.0875 17.6097M17.5255 8.36499L20.2445 10.5402L17.5255 8.36499ZM9.36844 8.36499L6.64941 10.5402L9.36844 8.36499ZM18.0693 20.8725L19.1569 21.9601L18.0693 20.8725ZM8.82464 20.8725L7.73702 21.9601L8.82464 20.8725Z" stroke="white" stroke-width="1.5" stroke-linecap="round" stroke-linejoin="round"/>
<path d="M13.447 21.9601C16.6005 21.9601 19.157 19.4037 19.157 16.2502C19.157 13.0967 16.6005 10.5402 13.447 10.5402C10.2935 10.5402 7.73706 13.0967 7.73706 16.2502C7.73706 19.4037 10.2935 21.9601 13.447 21.9601Z" stroke="white" stroke-width="1.5" stroke-linecap="round" stroke-linejoin="round"/>
<rect x="0.75" y="4.0477" width="25.3937" height="22.2297" rx="3.25" stroke="white" stroke-width="1.5"/>
<rect x="23.7297" y="0.924744" width="4.74594" height="10.2829" fill="#780000"/>
<mask id="path-5-inside-1_91_136" fill="white">
<path d="M26.3871 2.3871C26.3871 2.28443 26.3463 2.18597 26.2737 2.11338C26.2011 2.04078 26.1027 2 26 2C25.8973 2 25.7989 2.04078 25.7263 2.11338C25.6537 2.18597 25.6129 2.28443 25.6129 2.3871V5.6129H22.3871C22.2844 5.6129 22.186 5.65369 22.1134 5.72628C22.0408 5.79888 22 5.89734 22 6C22 6.10266 22.0408 6.20112 22.1134 6.27372C22.186 6.34631 22.2844 6.3871 22.3871 6.3871H25.6129V9.6129C25.6129 9.71557 25.6537 9.81403 25.7263 9.88662C25.7989 9.95922 25.8973 10 26 10C26.1027 10 26.2011 9.95922 26.2737 9.88662C26.3463 9.81403 26.3871 9.71557 26.3871 9.6129V6.3871H29.6129C29.7156 6.3871 29.814 6.34631 29.8866 6.27372C29.9592 6.20112 30 6.10266 30 6C30 5.89734 29.9592 5.79888 29.8866 5.72628C29.814 5.65369 29.7156 5.6129 29.6129 5.6129H26.3871V2.3871Z"/>
</mask>
<path d="M26.3871 2.3871C26.3871 2.28443 26.3463 2.18597 26.2737 2.11338C26.2011 2.04078 26.1027 2 26 2C25.8973 2 25.7989 2.04078 25.7263 2.11338C25.6537 2.18597 25.6129 2.28443 25.6129 2.3871V5.6129H22.3871C22.2844 5.6129 22.186 5.65369 22.1134 5.72628C22.0408 5.79888 22 5.89734 22 6C22 6.10266 22.0408 6.20112 22.1134 6.27372C22.186 6.34631 22.2844 6.3871 22.3871 6.3871H25.6129V9.6129C25.6129 9.71557 25.6537 9.81403 25.7263 9.88662C25.7989 9.95922 25.8973 10 26 10C26.1027 10 26.2011 9.95922 26.2737 9.88662C26.3463 9.81403 26.3871 9.71557 26.3871 9.6129V6.3871H29.6129C29.7156 6.3871 29.814 6.34631 29.8866 6.27372C29.9592 6.20112 30 6.10266 30 6C30 5.89734 29.9592 5.79888 29.8866 5.72628C29.814 5.65369 29.7156 5.6129 29.6129 5.6129H26.3871V2.3871Z" fill="white"/>
<path d="M25.6129 5.6129V7.1129H27.1129V5.6129H25.6129ZM25.6129 6.3871H27.1129V4.8871H25.6129V6.3871ZM26.3871 6.3871V4.8871H24.8871V6.3871H26.3871ZM26.3871 5.6129H24.8871V7.1129H26.3871V5.6129ZM27.8871 2.3871C27.8871 1.8866 27.6883 1.40661 27.3344 1.05272L25.2131 3.17404C25.0044 2.96533 24.8871 2.68226 24.8871 2.3871H27.8871ZM27.3344 1.05272C26.9805 0.69882 26.5005 0.5 26 0.5V3.5C25.7048 3.5 25.4218 3.38275 25.2131 3.17404L27.3344 1.05272ZM26 0.5C25.4995 0.5 25.0195 0.698818 24.6656 1.05272L26.7869 3.17404C26.5782 3.38275 26.2952 3.5 26 3.5V0.5ZM24.6656 1.05272C24.3117 1.40662 24.1129 1.88661 24.1129 2.3871H27.1129C27.1129 2.68226 26.9957 2.96533 26.7869 3.17404L24.6656 1.05272ZM24.1129 2.3871V5.6129H27.1129V2.3871H24.1129ZM25.6129 4.1129H22.3871V7.1129H25.6129V4.1129ZM22.3871 4.1129C21.8866 4.1129 21.4066 4.31172 21.0527 4.66562L23.174 6.78694C22.9653 6.99565 22.6823 7.1129 22.3871 7.1129V4.1129ZM21.0527 4.66562C20.6988 5.01952 20.5 5.49951 20.5 6H23.5C23.5 6.29516 23.3827 6.57823 23.174 6.78694L21.0527 4.66562ZM20.5 6C20.5 6.50049 20.6988 6.98048 21.0527 7.33438L23.174 5.21306C23.3827 5.42177 23.5 5.70484 23.5 6H20.5ZM21.0527 7.33438C21.4066 7.68827 21.8866 7.8871 22.3871 7.8871V4.8871C22.6823 4.8871 22.9653 5.00435 23.174 5.21306L21.0527 7.33438ZM22.3871 7.8871H25.6129V4.8871H22.3871V7.8871ZM24.1129 6.3871V9.6129H27.1129V6.3871H24.1129ZM24.1129 9.6129C24.1129 10.1134 24.3117 10.5934 24.6656 10.9473L26.7869 8.82596C26.9957 9.03467 27.1129 9.31774 27.1129 9.6129H24.1129ZM24.6656 10.9473C25.0195 11.3012 25.4995 11.5 26 11.5V8.5C26.2952 8.5 26.5782 8.61725 26.7869 8.82596L24.6656 10.9473ZM26 11.5C26.5005 11.5 26.9805 11.3012 27.3344 10.9473L25.2131 8.82596C25.4218 8.61725 25.7048 8.5 26 8.5V11.5ZM27.3344 10.9473C27.6883 10.5934 27.8871 10.1134 27.8871 9.6129H24.8871C24.8871 9.31774 25.0044 9.03467 25.2131 8.82596L27.3344 10.9473ZM27.8871 9.6129V6.3871H24.8871V9.6129H27.8871ZM26.3871 7.8871H29.6129V4.8871H26.3871V7.8871ZM29.6129 7.8871C30.1134 7.8871 30.5934 7.68827 30.9473 7.33438L28.826 5.21306C29.0347 5.00435 29.3177 4.8871 29.6129 4.8871V7.8871ZM30.9473 7.33438C31.3012 6.98048 31.5 6.50049 31.5 6H28.5C28.5 5.70484 28.6173 5.42177 28.826 5.21306L30.9473 7.33438ZM31.5 6C31.5 5.49951 31.3012 5.01952 30.9473 4.66562L28.826 6.78694C28.6173 6.57823 28.5 6.29516 28.5 6H31.5ZM30.9473 4.66562C30.5934 4.31172 30.1134 4.1129 29.6129 4.1129V7.1129C29.3177 7.1129 29.0347 6.99565 28.826 6.78694L30.9473 4.66562ZM29.6129 4.1129H26.3871V7.1129H29.6129V4.1129ZM27.8871 5.6129V2.3871H24.8871V5.6129H27.8871Z" fill="white" mask="url(#path-5-inside-1_91_136)"/>
<rect x="21.3566" y="3.2977" width="2.37297" height="1.58198" fill="#780000"/>
</svg>
