<svg width="18" height="20" viewBox="0 0 18 20" fill="none" xmlns="http://www.w3.org/2000/svg">
<path d="M11.0491 1.5516C11.0696 1.52578 11.0952 1.5044 11.1242 1.48877C11.1532 1.47314 11.1852 1.46357 11.218 1.46066C11.2509 1.45775 11.284 1.46155 11.3153 1.47183C11.3467 1.48211 11.3756 1.49866 11.4003 1.52046L12.2964 2.31052L9.47578 5.83754H11.3449L13.3939 3.27668L15.0013 4.6943C15.0488 4.7363 15.0781 4.7952 15.0828 4.85845C15.0875 4.92171 15.0674 4.9843 15.0266 5.0329L14.3552 5.83754H16.2467C16.481 5.49455 16.5818 5.07774 16.5302 4.66558C16.4786 4.25342 16.2781 3.87434 15.9665 3.59971L12.3665 0.424896C12.1928 0.271948 11.9898 0.156006 11.7698 0.0841535C11.5498 0.0123005 11.3175 -0.0139561 11.087 0.00698729C10.8566 0.0279307 10.6328 0.0956344 10.4294 0.205964C10.2259 0.316293 10.0471 0.466932 9.90389 0.64868L5.81449 5.83754H7.67286L11.0491 1.5516ZM2.18919 5.35106C1.99565 5.35106 1.81004 5.42794 1.67319 5.56479C1.53634 5.70164 1.45946 5.88725 1.45946 6.08079C1.45946 6.27432 1.53634 6.45993 1.67319 6.59679C1.81004 6.73364 1.99565 6.81052 2.18919 6.81052H14.8378C15.6765 6.81052 16.4808 7.14367 17.0738 7.73669C17.6668 8.32971 18 9.13402 18 9.97268V16.297C18 17.1357 17.6668 17.94 17.0738 18.533C16.4808 19.126 15.6765 19.4592 14.8378 19.4592H3.16216C2.3235 19.4592 1.5192 19.126 0.926176 18.533C0.333155 17.94 0 17.1357 0 16.297V6.08079C0 5.50018 0.230646 4.94335 0.641199 4.5328C1.05175 4.12225 1.60858 3.8916 2.18919 3.8916H6.39243L5.23265 5.35106H2.18919ZM12.1622 13.3781C12.1622 13.7809 12.4891 14.1078 12.8919 14.1078H14.8378C15.0314 14.1078 15.217 14.0309 15.3538 13.8941C15.4907 13.7572 15.5676 13.5716 15.5676 13.3781C15.5676 13.1846 15.4907 12.9989 15.3538 12.8621C15.217 12.7252 15.0314 12.6484 14.8378 12.6484H12.8919C12.6984 12.6484 12.5127 12.7252 12.3759 12.8621C12.239 12.9989 12.1622 13.1846 12.1622 13.3781Z" fill="white"/>
</svg>
