<svg width="31" height="28" viewBox="0 0 31 28" fill="none" xmlns="http://www.w3.org/2000/svg">
<path d="M18.6378 10.8121H16.4626V10.087C16.4626 9.70245 16.3098 9.3336 16.0378 9.06164C15.7659 8.78968 15.397 8.6369 15.0124 8.6369H12.1121C11.7275 8.6369 11.3587 8.78968 11.0867 9.06164C10.8148 9.3336 10.662 9.70245 10.662 10.087V10.8121H8.48675C7.90984 10.8121 7.35656 11.0413 6.94863 11.4492C6.5407 11.8572 6.31152 12.4104 6.31152 12.9873V19.513C6.31152 20.0899 6.5407 20.6432 6.94863 21.0511C7.35656 21.4591 7.90984 21.6882 8.48675 21.6882H18.6378C19.2147 21.6882 19.768 21.4591 20.1759 21.0511C20.5838 20.6432 20.813 20.0899 20.813 19.513V12.9873C20.813 12.4104 20.5838 11.8572 20.1759 11.4492C19.768 11.0413 19.2147 10.8121 18.6378 10.8121ZM12.1121 10.087H15.0124V10.8121H12.1121V10.087ZM19.3629 19.513C19.3629 19.7053 19.2865 19.8897 19.1505 20.0257C19.0145 20.1617 18.8301 20.2381 18.6378 20.2381H8.48675C8.29444 20.2381 8.11002 20.1617 7.97404 20.0257C7.83806 19.8897 7.76167 19.7053 7.76167 19.513V15.4453L11.155 16.6127C11.232 16.6232 11.3101 16.6232 11.387 16.6127H15.7375C15.8161 16.6113 15.8942 16.5991 15.9695 16.5765L19.3629 15.4453V19.513ZM19.3629 13.9154L15.6215 15.1626H11.5031L7.76167 13.9154V12.9873C7.76167 12.795 7.83806 12.6106 7.97404 12.4746C8.11002 12.3387 8.29444 12.2623 8.48675 12.2623H18.6378C18.8301 12.2623 19.0145 12.3387 19.1505 12.4746C19.2865 12.6106 19.3629 12.795 19.3629 12.9873V13.9154Z" fill="white"/>
<rect x="0.865234" y="4.0477" width="25.3937" height="22.2297" rx="3.25" stroke="white" stroke-width="1.5"/>
<rect x="20.6812" y="0.924744" width="9.49188" height="9.49188" fill="#780000"/>
<mask id="path-4-inside-1_91_119" fill="white">
<path d="M25.3871 2.3871C25.3871 2.28443 25.3463 2.18597 25.2737 2.11338C25.2011 2.04078 25.1027 2 25 2C24.8973 2 24.7989 2.04078 24.7263 2.11338C24.6537 2.18597 24.6129 2.28443 24.6129 2.3871V5.6129H21.3871C21.2844 5.6129 21.186 5.65369 21.1134 5.72628C21.0408 5.79888 21 5.89734 21 6C21 6.10266 21.0408 6.20112 21.1134 6.27372C21.186 6.34631 21.2844 6.3871 21.3871 6.3871H24.6129V9.6129C24.6129 9.71557 24.6537 9.81403 24.7263 9.88662C24.7989 9.95922 24.8973 10 25 10C25.1027 10 25.2011 9.95922 25.2737 9.88662C25.3463 9.81403 25.3871 9.71557 25.3871 9.6129V6.3871H28.6129C28.7156 6.3871 28.814 6.34631 28.8866 6.27372C28.9592 6.20112 29 6.10266 29 6C29 5.89734 28.9592 5.79888 28.8866 5.72628C28.814 5.65369 28.7156 5.6129 28.6129 5.6129H25.3871V2.3871Z"/>
</mask>
<path d="M25.3871 2.3871C25.3871 2.28443 25.3463 2.18597 25.2737 2.11338C25.2011 2.04078 25.1027 2 25 2C24.8973 2 24.7989 2.04078 24.7263 2.11338C24.6537 2.18597 24.6129 2.28443 24.6129 2.3871V5.6129H21.3871C21.2844 5.6129 21.186 5.65369 21.1134 5.72628C21.0408 5.79888 21 5.89734 21 6C21 6.10266 21.0408 6.20112 21.1134 6.27372C21.186 6.34631 21.2844 6.3871 21.3871 6.3871H24.6129V9.6129C24.6129 9.71557 24.6537 9.81403 24.7263 9.88662C24.7989 9.95922 24.8973 10 25 10C25.1027 10 25.2011 9.95922 25.2737 9.88662C25.3463 9.81403 25.3871 9.71557 25.3871 9.6129V6.3871H28.6129C28.7156 6.3871 28.814 6.34631 28.8866 6.27372C28.9592 6.20112 29 6.10266 29 6C29 5.89734 28.9592 5.79888 28.8866 5.72628C28.814 5.65369 28.7156 5.6129 28.6129 5.6129H25.3871V2.3871Z" fill="white"/>
<path d="M24.6129 5.6129V7.6129H26.6129V5.6129H24.6129ZM24.6129 6.3871H26.6129V4.3871H24.6129V6.3871ZM25.3871 6.3871V4.3871H23.3871V6.3871H25.3871ZM25.3871 5.6129H23.3871V7.6129H25.3871V5.6129ZM27.3871 2.3871C27.3871 1.75399 27.1356 1.14683 26.6879 0.699164L23.8595 3.52759C23.557 3.22512 23.3871 2.81487 23.3871 2.3871H27.3871ZM26.6879 0.699164C26.2403 0.251498 25.6331 0 25 0V4C24.5722 4 24.162 3.83007 23.8595 3.52759L26.6879 0.699164ZM25 0C24.3669 0 23.7597 0.251497 23.3121 0.699164L26.1405 3.52759C25.838 3.83007 25.4278 4 25 4V0ZM23.3121 0.699164C22.8644 1.14683 22.6129 1.754 22.6129 2.3871H26.6129C26.6129 2.81487 26.443 3.22511 26.1405 3.52759L23.3121 0.699164ZM22.6129 2.3871V5.6129H26.6129V2.3871H22.6129ZM24.6129 3.6129H21.3871V7.6129H24.6129V3.6129ZM21.3871 3.6129C20.754 3.6129 20.1468 3.8644 19.6992 4.31207L22.5276 7.14049C22.2251 7.44297 21.8149 7.6129 21.3871 7.6129V3.6129ZM19.6992 4.31207C19.2515 4.75974 19 5.3669 19 6H23C23 6.42777 22.8301 6.83802 22.5276 7.14049L19.6992 4.31207ZM19 6C19 6.6331 19.2515 7.24027 19.6992 7.68793L22.5276 4.8595C22.8301 5.16198 23 5.57223 23 6H19ZM19.6992 7.68793C20.1468 8.13559 20.754 8.3871 21.3871 8.3871V4.3871C21.8149 4.3871 22.2251 4.55703 22.5276 4.8595L19.6992 7.68793ZM21.3871 8.3871H24.6129V4.3871H21.3871V8.3871ZM22.6129 6.3871V9.6129H26.6129V6.3871H22.6129ZM22.6129 9.6129C22.6129 10.246 22.8644 10.8532 23.3121 11.3008L26.1405 8.47241C26.443 8.77489 26.6129 9.18513 26.6129 9.6129H22.6129ZM23.3121 11.3008C23.7597 11.7485 24.3669 12 25 12V8C25.4278 8 25.838 8.16993 26.1405 8.47241L23.3121 11.3008ZM25 12C25.6331 12 26.2403 11.7485 26.6879 11.3008L23.8595 8.47241C24.162 8.16993 24.5722 8 25 8V12ZM26.6879 11.3008C27.1356 10.8532 27.3871 10.246 27.3871 9.6129H23.3871C23.3871 9.18513 23.557 8.77488 23.8595 8.47241L26.6879 11.3008ZM27.3871 9.6129V6.3871H23.3871V9.6129H27.3871ZM25.3871 8.3871H28.6129V4.3871H25.3871V8.3871ZM28.6129 8.3871C29.246 8.3871 29.8532 8.1356 30.3008 7.68793L27.4724 4.8595C27.7749 4.55703 28.1851 4.3871 28.6129 4.3871V8.3871ZM30.3008 7.68793C30.7485 7.24027 31 6.6331 31 6H27C27 5.57223 27.1699 5.16198 27.4724 4.8595L30.3008 7.68793ZM31 6C31 5.3669 30.7485 4.75973 30.3008 4.31207L27.4724 7.14049C27.1699 6.83802 27 6.42777 27 6H31ZM30.3008 4.31207C29.8532 3.8644 29.246 3.6129 28.6129 3.6129V7.6129C28.1851 7.6129 27.7749 7.44297 27.4724 7.14049L30.3008 4.31207ZM28.6129 3.6129H25.3871V7.6129H28.6129V3.6129ZM27.3871 5.6129V2.3871H23.3871V5.6129H27.3871Z" fill="white" mask="url(#path-4-inside-1_91_119)"/>
</svg>
