<svg width="28" height="25" viewBox="0 0 28 25" fill="none" xmlns="http://www.w3.org/2000/svg">
<rect x="0.922852" y="1.60608" width="25.3937" height="22.2297" rx="3.25" stroke="white" stroke-width="1.5"/>
<path d="M20.6893 6.73904H6.5504C6.2496 6.73904 6.00659 6.98206 6.00659 7.28285V18.159C6.00659 18.4597 6.2496 18.7028 6.5504 18.7028H20.6893C20.9901 18.7028 21.2331 18.4597 21.2331 18.159V7.28285C21.2331 6.98206 20.9901 6.73904 20.6893 6.73904ZM7.23015 7.96261H20.0096V10.0019H7.23015V7.96261ZM20.0096 17.4792H7.23015V11.4973H20.0096V17.4792ZM15.982 16.3916H18.786C18.8608 16.3916 18.922 16.3304 18.922 16.2556V15.0321C18.922 14.9573 18.8608 14.8961 18.786 14.8961H15.982C15.9072 14.8961 15.8461 14.9573 15.8461 15.0321V16.2556C15.8461 16.3304 15.9072 16.3916 15.982 16.3916Z" fill="white"/>
</svg>
