<svg width="24" height="24" viewBox="0 0 24 24" fill="none" xmlns="http://www.w3.org/2000/svg">
<path d="M6 21H18C17 21 15 20.4 15 18V16H3V18C3 20.4 5 21 6 21Z" fill="white"/>
<path d="M18 21C20.4 21 21 19 21 18V5C21 4.46957 20.7893 3.96086 20.4142 3.58579C20.0391 3.21071 19.5304 3 19 3H7C6.46957 3 5.96086 3.21071 5.58579 3.58579C5.21071 3.96086 5 4.46957 5 5V13V20.8356L18 21ZM18 21H6C5 21 3 20.4 3 18V16H15V18C15 20.4 17 21 18 21ZM9 7H17M9 11H13" stroke="white" stroke-width="2" stroke-linecap="round" stroke-linejoin="round"/>
</svg>
