<svg width="31" height="28" viewBox="0 0 31 28" fill="none" xmlns="http://www.w3.org/2000/svg">
<path fill-rule="evenodd" clip-rule="evenodd" d="M7.52271 19.513C7.52271 19.3688 7.58 19.2305 7.68198 19.1285C7.78397 19.0265 7.92228 18.9692 8.06651 18.9692H18.9426C19.0868 18.9692 19.2252 19.0265 19.3271 19.1285C19.4291 19.2305 19.4864 19.3688 19.4864 19.513C19.4864 19.6572 19.4291 19.7955 19.3271 19.8975C19.2252 19.9995 19.0868 20.0568 18.9426 20.0568H8.06651C7.92228 20.0568 7.78397 19.9995 7.68198 19.8975C7.58 19.7955 7.52271 19.6572 7.52271 19.513ZM7.52271 15.1626C7.52271 15.0183 7.58 14.88 7.68198 14.778C7.78397 14.676 7.92228 14.6188 8.06651 14.6188H18.9426C19.0868 14.6188 19.2252 14.676 19.3271 14.778C19.4291 14.88 19.4864 15.0183 19.4864 15.1626C19.4864 15.3068 19.4291 15.4451 19.3271 15.5471C19.2252 15.6491 19.0868 15.7064 18.9426 15.7064H8.06651C7.92228 15.7064 7.78397 15.6491 7.68198 15.5471C7.58 15.4451 7.52271 15.3068 7.52271 15.1626ZM7.52271 10.8121C7.52271 10.6679 7.58 10.5296 7.68198 10.4276C7.78397 10.3256 7.92228 10.2683 8.06651 10.2683H18.9426C19.0868 10.2683 19.2252 10.3256 19.3271 10.4276C19.4291 10.5296 19.4864 10.6679 19.4864 10.8121C19.4864 10.9563 19.4291 11.0947 19.3271 11.1966C19.2252 11.2986 19.0868 11.3559 18.9426 11.3559H8.06651C7.92228 11.3559 7.78397 11.2986 7.68198 11.1966C7.58 11.0947 7.52271 10.9563 7.52271 10.8121Z" fill="white"/>
<rect x="0.807617" y="4.0477" width="25.3937" height="22.2297" rx="3.25" stroke="white" stroke-width="1.5"/>
<rect x="21.4142" y="0.924744" width="8.70089" height="9.49188" fill="#780000"/>
<mask id="path-4-inside-1_91_128" fill="white">
<path d="M26.3871 1.3871C26.3871 1.28443 26.3463 1.18597 26.2737 1.11338C26.2011 1.04078 26.1027 1 26 1C25.8973 1 25.7989 1.04078 25.7263 1.11338C25.6537 1.18597 25.6129 1.28443 25.6129 1.3871V4.6129H22.3871C22.2844 4.6129 22.186 4.65369 22.1134 4.72628C22.0408 4.79888 22 4.89734 22 5C22 5.10266 22.0408 5.20112 22.1134 5.27372C22.186 5.34631 22.2844 5.3871 22.3871 5.3871H25.6129V8.6129C25.6129 8.71557 25.6537 8.81403 25.7263 8.88662C25.7989 8.95922 25.8973 9 26 9C26.1027 9 26.2011 8.95922 26.2737 8.88662C26.3463 8.81403 26.3871 8.71557 26.3871 8.6129V5.3871H29.6129C29.7156 5.3871 29.814 5.34631 29.8866 5.27372C29.9592 5.20112 30 5.10266 30 5C30 4.89734 29.9592 4.79888 29.8866 4.72628C29.814 4.65369 29.7156 4.6129 29.6129 4.6129H26.3871V1.3871Z"/>
</mask>
<path d="M26.3871 1.3871C26.3871 1.28443 26.3463 1.18597 26.2737 1.11338C26.2011 1.04078 26.1027 1 26 1C25.8973 1 25.7989 1.04078 25.7263 1.11338C25.6537 1.18597 25.6129 1.28443 25.6129 1.3871V4.6129H22.3871C22.2844 4.6129 22.186 4.65369 22.1134 4.72628C22.0408 4.79888 22 4.89734 22 5C22 5.10266 22.0408 5.20112 22.1134 5.27372C22.186 5.34631 22.2844 5.3871 22.3871 5.3871H25.6129V8.6129C25.6129 8.71557 25.6537 8.81403 25.7263 8.88662C25.7989 8.95922 25.8973 9 26 9C26.1027 9 26.2011 8.95922 26.2737 8.88662C26.3463 8.81403 26.3871 8.71557 26.3871 8.6129V5.3871H29.6129C29.7156 5.3871 29.814 5.34631 29.8866 5.27372C29.9592 5.20112 30 5.10266 30 5C30 4.89734 29.9592 4.79888 29.8866 4.72628C29.814 4.65369 29.7156 4.6129 29.6129 4.6129H26.3871V1.3871Z" fill="white"/>
<path d="M25.6129 4.6129V6.6129H27.6129V4.6129H25.6129ZM25.6129 5.3871H27.6129V3.3871H25.6129V5.3871ZM26.3871 5.3871V3.3871H24.3871V5.3871H26.3871ZM26.3871 4.6129H24.3871V6.6129H26.3871V4.6129ZM28.3871 1.3871C28.3871 0.753993 28.1356 0.146827 27.6879 -0.300836L24.8595 2.52759C24.557 2.22512 24.3871 1.81487 24.3871 1.3871H28.3871ZM27.6879 -0.300836C27.2403 -0.748502 26.6331 -1 26 -1V3C25.5722 3 25.162 2.83007 24.8595 2.52759L27.6879 -0.300836ZM26 -1C25.3669 -1 24.7597 -0.748503 24.3121 -0.300836L27.1405 2.52759C26.838 2.83007 26.4278 3 26 3V-1ZM24.3121 -0.300836C23.8644 0.146831 23.6129 0.753998 23.6129 1.3871H27.6129C27.6129 1.81487 27.443 2.22511 27.1405 2.52759L24.3121 -0.300836ZM23.6129 1.3871V4.6129H27.6129V1.3871H23.6129ZM25.6129 2.6129H22.3871V6.6129H25.6129V2.6129ZM22.3871 2.6129C21.754 2.6129 21.1468 2.8644 20.6992 3.31207L23.5276 6.14049C23.2251 6.44297 22.8149 6.6129 22.3871 6.6129V2.6129ZM20.6992 3.31207C20.2515 3.75974 20 4.3669 20 5H24C24 5.42777 23.8301 5.83802 23.5276 6.14049L20.6992 3.31207ZM20 5C20 5.6331 20.2515 6.24027 20.6992 6.68793L23.5276 3.8595C23.8301 4.16198 24 4.57223 24 5H20ZM20.6992 6.68793C21.1468 7.13559 21.754 7.3871 22.3871 7.3871V3.3871C22.8149 3.3871 23.2251 3.55703 23.5276 3.8595L20.6992 6.68793ZM22.3871 7.3871H25.6129V3.3871H22.3871V7.3871ZM23.6129 5.3871V8.6129H27.6129V5.3871H23.6129ZM23.6129 8.6129C23.6129 9.246 23.8644 9.85317 24.3121 10.3008L27.1405 7.47241C27.443 7.77489 27.6129 8.18513 27.6129 8.6129H23.6129ZM24.3121 10.3008C24.7597 10.7485 25.3669 11 26 11V7C26.4278 7 26.838 7.16993 27.1405 7.47241L24.3121 10.3008ZM26 11C26.6331 11 27.2403 10.7485 27.6879 10.3008L24.8595 7.47241C25.162 7.16993 25.5722 7 26 7V11ZM27.6879 10.3008C28.1356 9.85317 28.3871 9.24601 28.3871 8.6129H24.3871C24.3871 8.18513 24.557 7.77488 24.8595 7.47241L27.6879 10.3008ZM28.3871 8.6129V5.3871H24.3871V8.6129H28.3871ZM26.3871 7.3871H29.6129V3.3871H26.3871V7.3871ZM29.6129 7.3871C30.246 7.3871 30.8532 7.1356 31.3008 6.68793L28.4724 3.8595C28.7749 3.55703 29.1851 3.3871 29.6129 3.3871V7.3871ZM31.3008 6.68793C31.7485 6.24027 32 5.6331 32 5H28C28 4.57223 28.1699 4.16198 28.4724 3.8595L31.3008 6.68793ZM32 5C32 4.3669 31.7485 3.75973 31.3008 3.31207L28.4724 6.14049C28.1699 5.83802 28 5.42777 28 5H32ZM31.3008 3.31207C30.8532 2.8644 30.246 2.6129 29.6129 2.6129V6.6129C29.1851 6.6129 28.7749 6.44297 28.4724 6.14049L31.3008 3.31207ZM29.6129 2.6129H26.3871V6.6129H29.6129V2.6129ZM28.3871 4.6129V1.3871H24.3871V4.6129H28.3871Z" fill="white" mask="url(#path-4-inside-1_91_128)"/>
</svg>
