<svg width="22" height="22" viewBox="0 0 22 22" fill="none" xmlns="http://www.w3.org/2000/svg">
<path d="M19.9375 4.8125H16.5V3.60938C16.5 3.51484 16.4227 3.4375 16.3281 3.4375H15.125C15.0305 3.4375 14.9531 3.51484 14.9531 3.60938V4.8125H11.7734V3.60938C11.7734 3.51484 11.6961 3.4375 11.6016 3.4375H10.3984C10.3039 3.4375 10.2266 3.51484 10.2266 3.60938V4.8125H7.04688V3.60938C7.04688 3.51484 6.96953 3.4375 6.875 3.4375H5.67188C5.57734 3.4375 5.5 3.51484 5.5 3.60938V4.8125H2.0625C1.68223 4.8125 1.375 5.11973 1.375 5.5V17.875C1.375 18.2553 1.68223 18.5625 2.0625 18.5625H19.9375C20.3178 18.5625 20.625 18.2553 20.625 17.875V5.5C20.625 5.11973 20.3178 4.8125 19.9375 4.8125ZM9.10938 14.7812C9.10938 14.8758 9.03203 14.9531 8.9375 14.9531H4.98438C4.88984 14.9531 4.8125 14.8758 4.8125 14.7812V13.75C4.8125 13.6555 4.88984 13.5781 4.98438 13.5781H8.9375C9.03203 13.5781 9.10938 13.6555 9.10938 13.75V14.7812ZM9.10938 11.8594C9.10938 11.9539 9.03203 12.0312 8.9375 12.0312H4.98438C4.88984 12.0312 4.8125 11.9539 4.8125 11.8594V10.8281C4.8125 10.7336 4.88984 10.6562 4.98438 10.6562H8.9375C9.03203 10.6562 9.10938 10.7336 9.10938 10.8281V11.8594ZM17.1553 9.89785L13.6104 14.8113C13.5787 14.8552 13.5371 14.891 13.4889 14.9157C13.4407 14.9404 13.3873 14.9532 13.3332 14.9532C13.2791 14.9532 13.2257 14.9404 13.1775 14.9157C13.1293 14.891 13.0877 14.8552 13.0561 14.8113L10.6025 11.4125C10.5209 11.2986 10.6025 11.1396 10.7422 11.1396H11.9217C12.0313 11.1396 12.1344 11.1934 12.1988 11.2814L13.3332 12.852L15.5611 9.76465C15.6256 9.67441 15.7287 9.62285 15.8383 9.62285H17.0156C17.1553 9.625 17.2369 9.78398 17.1553 9.89785Z" fill="white"/>
</svg>
