<svg width="22" height="22" viewBox="0 0 22 22" fill="none" xmlns="http://www.w3.org/2000/svg">
<path d="M4.07467 5.04672L0.201602 1.17503C0.137687 1.11111 0.0869859 1.03523 0.0523948 0.95172C0.0178038 0.86821 6.73463e-10 0.778705 0 0.688314C-6.73463e-10 0.597923 0.0178038 0.508418 0.0523948 0.424908C0.0869859 0.341398 0.137687 0.265518 0.201602 0.201602C0.265518 0.137687 0.341398 0.0869859 0.424908 0.0523948C0.508418 0.0178038 0.597923 -6.73463e-10 0.688314 0C0.778705 6.73463e-10 0.86821 0.0178038 0.95172 0.0523948C1.03523 0.0869859 1.11111 0.137687 1.17503 0.201602L21.7984 20.825C21.9275 20.9541 22 21.1291 22 21.3117C22 21.4942 21.9275 21.6693 21.7984 21.7984C21.6693 21.9275 21.4942 22 21.3117 22C21.1291 22 20.9541 21.9275 20.825 21.7984L17.6407 18.6141C16.7792 19.6254 15.7176 20.4474 14.5228 21.0283C13.328 21.6092 12.0259 21.9365 10.6984 21.9894C9.37099 22.0424 8.04693 21.82 6.80964 21.3362C5.57235 20.8524 4.44863 20.1176 3.50923 19.1782C2.56982 18.2388 1.83508 17.1151 1.35126 15.8778C0.867442 14.6405 0.645024 13.3165 0.69801 11.989C0.750997 10.6615 1.07824 9.35942 1.65914 8.16463C2.24004 6.96985 3.06201 5.90826 4.0733 5.04672H4.07467ZM11 11.972L9.62511 10.5972V13.0623C9.62511 13.2447 9.69754 13.4195 9.82646 13.5484C9.95538 13.6774 10.1302 13.7498 10.3126 13.7498C10.4949 13.7498 10.6697 13.6774 10.7987 13.5484C10.9276 13.4195 11 13.2447 11 13.0623V11.972ZM11 6.18788V8.08386L19.138 16.2205C19.912 14.4475 20.1337 12.4825 19.7743 10.5816C19.4149 8.68077 18.4909 6.93236 17.123 5.56444C15.7551 4.19652 14.0067 3.27258 12.1058 2.91315C10.205 2.55371 8.23993 2.77546 6.46698 3.54946L9.62511 6.71034V6.18788C9.62511 6.00556 9.69754 5.8307 9.82646 5.70178C9.95538 5.57286 10.1302 5.50043 10.3126 5.50043C10.4949 5.50043 10.6697 5.57286 10.7987 5.70178C10.9276 5.8307 11 6.00556 11 6.18788ZM6.87533 0.688314C6.87533 0.505992 6.94775 0.331138 7.07667 0.202217C7.2056 0.0732956 7.38045 0.000868341 7.56277 0.000868341H13.0623C13.2447 0.000868341 13.4195 0.0732956 13.5484 0.202217C13.6774 0.331138 13.7498 0.505992 13.7498 0.688314C13.7498 0.870636 13.6774 1.04549 13.5484 1.17441C13.4195 1.30333 13.2447 1.37576 13.0623 1.37576H7.56277C7.38045 1.37576 7.2056 1.30333 7.07667 1.17441C6.94775 1.04549 6.87533 0.870636 6.87533 0.688314ZM17.1183 2.65303C17.2471 2.52458 17.4217 2.45245 17.6036 2.45245C17.7856 2.45245 17.9601 2.52458 18.0889 2.65303L20.033 4.59713C20.0987 4.66055 20.1511 4.7364 20.1871 4.82027C20.2231 4.90414 20.2421 4.99435 20.2429 5.08563C20.2437 5.17691 20.2263 5.26743 20.1917 5.35191C20.1572 5.4364 20.1061 5.51315 20.0416 5.5777C19.977 5.64225 19.9003 5.69329 19.8158 5.72786C19.7313 5.76242 19.6408 5.77982 19.5495 5.77902C19.4582 5.77823 19.368 5.75927 19.2841 5.72324C19.2003 5.68721 19.1244 5.63484 19.061 5.56918L17.1183 3.62508C16.9894 3.49617 16.917 3.32134 16.917 3.13906C16.917 2.95677 16.9894 2.78195 17.1183 2.65303Z" fill="white"/>
</svg>
